M48
; DRILL file {KiCad 8.0.3} date 2026-02-22T18:16:27-0800
; FORMAT={-:-/ absolute / inch / decimal}
; #@! TF.CreationDate,2026-02-22T18:16:27-08:00
; #@! TF.GenerationSoftware,Kicad,Pcbnew,8.0.3
; #@! TF.FileFunction,Plated,1,2,PTH
FMAT,2
INCH
; #@! TA.AperFunction,Plated,PTH,ComponentDrill
T1C0.0079
; #@! TA.AperFunction,Plated,PTH,ViaDrill
T2C0.0118
; #@! TA.AperFunction,Plated,PTH,ComponentDrill
T3C0.0197
; #@! TA.AperFunction,Plated,PTH,ComponentDrill
T4C0.0394
%
G90
G05
T1
X2.6148Y-1.4888
X2.6453Y-1.4583
X2.6453Y-1.4888
X2.6453Y-1.5193
X2.6758Y-1.4888
T2
X2.1317Y-1.9865
X2.1364Y-1.3254
X2.1392Y-2.6584
X2.1405Y-2.9976
X2.162Y-3.3232
X2.1681Y-2.3928
X2.1757Y-3.0292
X2.189Y-2.9372
X2.1908Y-2.4452
X2.197Y-1.8846
X2.1982Y-3.1386
X2.2037Y-2.8796
X2.2054Y-2.8403
X2.2059Y-2.7848
X2.2081Y-2.1269
X2.2412Y-3.0628
X2.2487Y-1.8087
X2.2608Y-3.1868
X2.269Y-1.6016
X2.2757Y-2.6324
X2.2757Y-2.516
X2.2809Y-2.3206
X2.2813Y-3.0898
X2.2875Y-1.2878
X2.2961Y-1.9059
X2.2961Y-1.9428
X2.2982Y-2.0475
X2.3081Y-1.642
X2.3261Y-1.5033
X2.3311Y-2.1441
X2.3324Y-2.3683
X2.3464Y-3.0145
X2.372Y-2.6237
X2.375Y-3.3553
X2.3854Y-2.7246
X2.3865Y-1.2041
X2.4081Y-1.5121
X2.4092Y-3.0069
X2.4215Y-3.3523
X2.4345Y-2.4956
X2.4376Y-1.6341
X2.438Y-2.8705
X2.4382Y-1.6752
X2.4395Y-1.3961
X2.4464Y-2.6465
X2.4479Y-2.3604
X2.4528Y-1.9619
X2.4696Y-2.4268
X2.4735Y-2.0794
X2.4839Y-2.6191
X2.488Y-2.3297
X2.4889Y-2.7738
X2.4926Y-2.2202
X2.4974Y-2.3627
X2.5012Y-2.9448
X2.507Y-2.1383
X2.5101Y-1.4255
X2.5126Y-1.3839
X2.5127Y-1.6367
X2.514Y-1.5727
X2.5272Y-2.255
X2.5329Y-1.9126
X2.5334Y-2.3616
X2.5395Y-1.6799
X2.551Y-2.2199
X2.5514Y-1.4871
X2.5619Y-2.6879
X2.5745Y-2.5129
X2.5787Y-1.9528
X2.5796Y-2.2331
X2.5799Y-1.4013
X2.5801Y-2.3546
X2.5865Y-1.6237
X2.589Y-3.068
X2.5917Y-3.2818
X2.5946Y-2.8665
X2.5986Y-1.686
X2.6039Y-2.9641
X2.631Y-3.2001
X2.6449Y-2.6067
X2.6452Y-2.9547
X2.6488Y-2.2328
X2.6542Y-2.1046
X2.6609Y-1.8682
X2.6683Y-1.963
X2.6764Y-2.3923
X2.6853Y-2.6776
X2.6892Y-2.0171
X2.6906Y-1.762
X2.697Y-2.6084
X2.6983Y-2.892
X2.6985Y-1.9176
X2.6989Y-1.6614
X2.7055Y-2.3225
X2.7093Y-1.5532
X2.7143Y-1.2042
X2.7289Y-1.6713
X2.7294Y-2.6983
X2.7343Y-1.3242
X2.7408Y-1.5526
X2.7409Y-2.4537
X2.7532Y-2.7822
X2.779Y-2.6941
X2.78Y-1.2856
X2.784Y-2.1584
X2.7957Y-1.6578
X2.7957Y-2.455
X2.7982Y-2.9217
X2.8017Y-3.2877
X2.8302Y-1.6177
X2.8361Y-1.9327
X2.8385Y-1.4313
X2.8534Y-1.4817
X2.8574Y-1.5506
X2.8605Y-2.1043
X2.8623Y-1.8722
X2.8706Y-1.6678
X2.8711Y-3.0795
X2.8862Y-3.229
X2.8932Y-2.6255
X2.9024Y-1.4442
X2.9055Y-2.9914
X2.9107Y-2.8241
X2.9202Y-3.1521
X2.9213Y-3.0219
X2.9244Y-1.9593
X2.9261Y-2.3859
X2.928Y-2.6506
X2.9316Y-1.6247
X2.9329Y-1.8803
X2.935Y-2.5865
X2.9422Y-2.0876
X2.9583Y-3.3012
X2.9722Y-1.3783
X2.9829Y-2.602
T3
X2.1435Y-2.7234
X2.1435Y-2.7628
X2.1435Y-2.8809
X2.1435Y-2.9202
X2.1435Y-2.9596
X2.1435Y-2.8021
X2.1435Y-2.8415
X2.1567Y-2.2847
X2.1567Y-2.3241
X2.9363Y-2.2846
X2.9363Y-2.3239
X2.9737Y-2.7228
X2.9737Y-2.7621
X2.9737Y-2.8015
X2.9737Y-2.8409
X2.9737Y-2.8802
X2.9737Y-2.9196
X2.9737Y-2.959
T4
X2.4757Y-1.3078
X2.6928Y-3.256
M30
